<svg width="49" height="49" viewBox="0 0 49 49" fill="none" xmlns="http://www.w3.org/2000/svg">
<path d="M40.8332 16.3333H35.0961C34.1773 14.7408 32.9115 13.3729 31.3803 12.3317L34.7082 9.00375L31.8294 6.125L27.399 10.5554C26.4598 10.3308 25.5003 10.2083 24.4998 10.2083C23.4994 10.2083 22.5398 10.3308 21.6211 10.5554L17.1703 6.125L14.2915 9.00375L17.599 12.3317C16.0882 13.3729 14.8223 14.7408 13.9036 16.3333H8.1665V20.4167H12.4336C12.3315 21.0904 12.2498 21.7642 12.2498 22.4583V24.5H8.1665V28.5833H12.2498V30.625C12.2498 31.3192 12.3315 31.9929 12.4336 32.6667H8.1665V36.75H13.9036C16.0269 40.4046 19.9673 42.875 24.4998 42.875C29.0323 42.875 32.9728 40.4046 35.0961 36.75H40.8332V32.6667H36.5661C36.6682 31.9929 36.7498 31.3192 36.7498 30.625V28.5833H40.8332V24.5H36.7498V22.4583C36.7498 21.7642 36.6682 21.0904 36.5661 20.4167H40.8332V16.3333ZM28.5832 32.6667H20.4165V28.5833H28.5832V32.6667ZM28.5832 24.5H20.4165V20.4167H28.5832V24.5Z" fill="white"/>
</svg>
