<svg width="44" height="49" viewBox="0 0 44 49" fill="none" xmlns="http://www.w3.org/2000/svg">
<path d="M43.5556 11.2292V40.8333C43.5556 45.325 39.9919 49 35.6364 49H21.1838C19.0457 49 17.0263 48.1221 15.5414 46.5704L0 30.2779C0 30.2779 2.49455 27.7667 2.57374 27.7258C3.00929 27.3379 3.54384 27.1338 4.13778 27.1338C4.57333 27.1338 4.96929 27.2563 5.32566 27.4604C5.40485 27.4808 13.8586 32.4829 13.8586 32.4829V8.16667C13.8586 6.47208 15.1851 5.10417 16.8283 5.10417C18.4715 5.10417 19.798 6.47208 19.798 8.16667V22.4583H21.7778V3.0625C21.7778 1.36792 23.1042 0 24.7475 0C26.3907 0 27.7172 1.36792 27.7172 3.0625V22.4583H29.697V5.10417C29.697 3.40958 31.0234 2.04167 32.6667 2.04167C34.3099 2.04167 35.6364 3.40958 35.6364 5.10417V22.4583H37.6162V11.2292C37.6162 9.53458 38.9426 8.16667 40.5859 8.16667C42.2291 8.16667 43.5556 9.53458 43.5556 11.2292Z" fill="white"/>
</svg>
