<svg width="90" height="49" viewBox="0 0 90 49" fill="none" xmlns="http://www.w3.org/2000/svg">
<path opacity="0.8" d="M47.5708 16.3333C44.2225 6.81917 35.1575 0 24.5 0C10.9842 0 0 10.9842 0 24.5C0 38.0158 10.9842 49 24.5 49C35.1575 49 44.2225 42.1808 47.5708 32.6667H65.3333V49H81.6667V32.6667H89.8333V16.3333H47.5708ZM24.5 32.6667C20.0083 32.6667 16.3333 28.9917 16.3333 24.5C16.3333 20.0083 20.0083 16.3333 24.5 16.3333C28.9917 16.3333 32.6667 20.0083 32.6667 24.5C32.6667 28.9917 28.9917 32.6667 24.5 32.6667Z" fill="#F5F5F5"/>
</svg>
